<?xml version="1.0" encoding="UTF-8" standalone="no"?>
<!DOCTYPE svg PUBLIC "-//W3C//DTD SVG 1.1//EN" "http://www.w3.org/Graphics/SVG/1.1/DTD/svg11.dtd">
<svg width="100%" height="100%" viewBox="0 0 1558 632" version="1.1" xmlns="http://www.w3.org/2000/svg" xmlns:xlink="http://www.w3.org/1999/xlink" xml:space="preserve" xmlns:serif="http://www.serif.com/" style="fill-rule:evenodd;clip-rule:evenodd;stroke-linejoin:round;stroke-miterlimit:1.41421;">
    <g id="Artboard1" transform="matrix(1.21674,0,0,0.789876,0,0)">
        <rect x="0" y="0" width="1280" height="800" style="fill:none;"/>
        <rect id="Background" x="0" y="0" width="1280" height="800" style="fill:white;"/>
        <g id="Lines" transform="matrix(1,0,0,1.01959,-2.53188,2.64408)">
            <g transform="matrix(0.653215,0,0,0.647905,221.711,136.681)">
                <g transform="matrix(0.381642,0,0,0.850173,203.731,-12.2776)">
                    <path d="M697.197,92.369C697.197,81.815 684.665,73.246 669.23,73.246L130.035,73.246C114.599,73.246 102.067,81.815 102.067,92.369C102.067,102.924 114.599,111.492 130.035,111.492L669.23,111.492C684.665,111.492 697.197,102.924 697.197,92.369Z" style="fill:rgb(208,208,208);"/>
                </g>
                <g transform="matrix(0.510049,0,0,0.850173,-277.279,-12.2776)">
                    <path d="M697.197,92.369C697.197,81.815 687.82,73.246 676.271,73.246L122.994,73.246C111.444,73.246 102.067,81.815 102.067,92.369C102.067,102.924 111.444,111.492 122.994,111.492L676.271,111.492C687.82,111.492 697.197,102.924 697.197,92.369Z" style="fill:rgb(208,208,208);"/>
                </g>
                <g transform="matrix(0.172609,0,0,0.850173,88.6605,-12.2776)">
                    <path d="M697.197,92.369C697.197,81.815 669.489,73.246 635.361,73.246L163.904,73.246C129.775,73.246 102.067,81.815 102.067,92.369C102.067,102.924 129.775,111.492 163.904,111.492L635.361,111.492C669.489,111.492 697.197,102.924 697.197,92.369Z" style="fill:rgb(208,208,208);"/>
                </g>
                <g transform="matrix(0.500178,0,0,0.850173,451.044,-12.2776)">
                    <path d="M697.197,92.369C697.197,81.815 687.635,73.246 675.858,73.246L123.407,73.246C111.629,73.246 102.067,81.815 102.067,92.369C102.067,102.924 111.629,111.492 123.407,111.492L675.858,111.492C687.635,111.492 697.197,102.924 697.197,92.369Z" style="fill:rgb(208,208,208);"/>
                </g>
                <g transform="matrix(0.499487,0,0,0.850173,770.446,-12.2776)">
                    <path d="M697.197,92.369C697.197,81.815 687.622,73.246 675.828,73.246L123.436,73.246C111.643,73.246 102.067,81.815 102.067,92.369C102.067,102.924 111.643,111.492 123.436,111.492L675.828,111.492C687.622,111.492 697.197,102.924 697.197,92.369Z" style="fill:rgb(208,208,208);"/>
                </g>
                <g transform="matrix(0.497943,0,0,0.850173,1083.25,-12.2776)">
                    <path d="M697.197,92.369C697.197,81.815 687.592,73.246 675.762,73.246L123.503,73.246C111.672,73.246 102.067,81.815 102.067,92.369C102.067,102.924 111.672,111.492 123.503,111.492L675.762,111.492C687.592,111.492 697.197,102.924 697.197,92.369Z" style="fill:rgb(208,208,208);"/>
                </g>
            </g>
            <g transform="matrix(1,0,0,1,-1.84536e-12,-12.6011)">
                <g transform="matrix(0.308259,0,0,0.550831,192.778,211.26)">
                    <path d="M697.197,92.369C697.197,81.815 687.062,73.246 674.579,73.246L124.685,73.246C112.202,73.246 102.067,81.815 102.067,92.369C102.067,102.924 112.202,111.492 124.685,111.492L674.579,111.492C687.062,111.492 697.197,102.924 697.197,92.369Z" style="fill:rgb(208,208,208);fill-opacity:0.54902;"/>
                </g>
                <g transform="matrix(0.206946,0,0,0.550831,53.4721,211.26)">
                    <path d="M697.197,92.369C697.197,81.815 682.101,73.246 663.507,73.246L135.758,73.246C117.164,73.246 102.067,81.815 102.067,92.369C102.067,102.924 117.164,111.492 135.758,111.492L663.507,111.492C682.101,111.492 697.197,102.924 697.197,92.369Z" style="fill:rgb(208,208,208);"/>
                </g>
                <g transform="matrix(0.238841,0,0,0.550831,402.966,211.26)">
                    <path d="M697.197,92.369C697.197,81.815 684.117,73.246 668.006,73.246L131.259,73.246C115.148,73.246 102.067,81.815 102.067,92.369C102.067,102.924 115.148,111.492 131.259,111.492L668.006,111.492C684.117,111.492 697.197,102.924 697.197,92.369Z" style="fill:rgb(208,208,208);"/>
                </g>
                <g transform="matrix(0.543486,0,0,0.550831,654.758,211.26)">
                    <path d="M697.197,92.369C697.197,81.815 691.449,73.246 684.369,73.246L114.896,73.246C107.816,73.246 102.067,81.815 102.067,92.369C102.067,102.924 107.816,111.492 114.896,111.492L684.369,111.492C691.449,111.492 697.197,102.924 697.197,92.369Z" style="fill:rgb(208,208,208);fill-opacity:0.498039;"/>
                </g>
                <g transform="matrix(0.216316,0,0,0.550831,1024.2,211.26)">
                    <path d="M697.197,92.369C697.197,81.815 682.755,73.246 664.966,73.246L134.298,73.246C116.51,73.246 102.067,81.815 102.067,92.369C102.067,102.924 116.51,111.492 134.298,111.492L664.966,111.492C682.755,111.492 697.197,102.924 697.197,92.369Z" style="fill:rgb(208,208,208);"/>
                </g>
                <g transform="matrix(0.195349,0,0,0.550831,559.363,211.26)">
                    <path d="M697.197,92.369C697.197,81.815 681.205,73.246 661.507,73.246L137.758,73.246C118.06,73.246 102.067,81.815 102.067,92.369C102.067,102.924 118.06,111.492 137.758,111.492L661.507,111.492C681.205,111.492 697.197,102.924 697.197,92.369Z" style="fill:url(#_Linear1);"/>
                </g>
            </g>
            <g transform="matrix(1,0,0,1,-2.22434,-11.7513)">
                <g transform="matrix(0.355895,0,0,0.550831,293.429,280.342)">
                    <path d="M697.197,92.369C697.197,81.815 688.419,73.246 677.607,73.246L121.658,73.246C110.846,73.246 102.067,81.815 102.067,92.369C102.067,102.924 110.846,111.492 121.658,111.492L677.607,111.492C688.419,111.492 697.197,102.924 697.197,92.369Z" style="fill:rgb(208,208,208);"/>
                </g>
                <g transform="matrix(0.0884316,0,0,0.550831,247.192,280.342)">
                    <path d="M697.197,92.369C697.197,81.815 661.869,73.246 618.355,73.246L180.909,73.246C137.395,73.246 102.067,81.815 102.067,92.369C102.067,102.924 137.395,111.492 180.909,111.492L618.355,111.492C661.869,111.492 697.197,102.924 697.197,92.369Z" style="fill:rgb(208,208,208);"/>
                </g>
                <g transform="matrix(0.277303,0,0,0.550831,48.5152,280.342)">
                    <path d="M697.197,92.369C697.197,81.815 685.931,73.246 672.054,73.246L127.21,73.246C113.333,73.246 102.067,81.815 102.067,92.369C102.067,102.924 113.333,111.492 127.21,111.492L672.054,111.492C685.931,111.492 697.197,102.924 697.197,92.369Z" style="fill:rgb(208,208,208);"/>
                </g>
                <g transform="matrix(0.169148,0,0,0.550831,542.413,280.342)">
                    <path d="M697.197,92.369C697.197,81.815 678.727,73.246 655.978,73.246L143.286,73.246C120.537,73.246 102.067,81.815 102.067,92.369C102.067,102.924 120.537,111.492 143.286,111.492L655.978,111.492C678.727,111.492 697.197,102.924 697.197,92.369Z" style="fill:url(#_Linear2);"/>
                </g>
                <g transform="matrix(0.12924,0,0,0.550831,663.536,280.342)">
                    <path d="M697.197,92.369C697.197,81.815 673.024,73.246 643.25,73.246L156.014,73.246C126.24,73.246 102.067,81.815 102.067,92.369C102.067,102.924 126.24,111.492 156.014,111.492L643.25,111.492C673.024,111.492 697.197,102.924 697.197,92.369Z" style="fill:url(#_Linear3);"/>
                </g>
                <g transform="matrix(0.31627,0,0,0.550831,750.133,280.342)">
                    <path d="M697.197,92.369C697.197,81.815 687.319,73.246 675.152,73.246L124.112,73.246C111.945,73.246 102.067,81.815 102.067,92.369C102.067,102.924 111.945,111.492 124.112,111.492L675.152,111.492C687.319,111.492 697.197,102.924 697.197,92.369Z" style="fill:rgb(208,208,208);"/>
                </g>
                <g transform="matrix(0.185299,0,0,0.550831,964.262,280.342)">
                    <path d="M697.197,92.369C697.197,81.815 680.337,73.246 659.571,73.246L139.694,73.246C118.927,73.246 102.067,81.815 102.067,92.369C102.067,102.924 118.927,111.492 139.694,111.492L659.571,111.492C680.337,111.492 697.197,102.924 697.197,92.369Z" style="fill:rgb(208,208,208);"/>
                </g>
                <g transform="matrix(0.141135,0,0,0.550831,1094.29,280.342)">
                    <path d="M697.197,92.369C697.197,81.815 675.062,73.246 647.797,73.246L151.468,73.246C124.203,73.246 102.067,81.815 102.067,92.369C102.067,102.924 124.203,111.492 151.468,111.492L647.797,111.492C675.062,111.492 697.197,102.924 697.197,92.369Z" style="fill:rgb(208,208,208);"/>
                </g>
            </g>
            <g transform="matrix(1,0,0,1,-1.77528e-12,-10.5976)">
                <g transform="matrix(0.203222,0,0,0.550831,595.513,349.12)">
                    <path d="M697.197,92.369C697.197,81.815 681.824,73.246 662.889,73.246L136.375,73.246C117.44,73.246 102.067,81.815 102.067,92.369C102.067,102.924 117.44,111.492 136.375,111.492L662.889,111.492C681.824,111.492 697.197,102.924 697.197,92.369Z" style="fill:url(#_Linear4);"/>
                </g>
                <g transform="matrix(0.269878,0,0,0.550831,406.205,349.12)">
                    <path d="M697.197,92.369C697.197,81.815 685.621,73.246 671.363,73.246L127.902,73.246C113.643,73.246 102.067,81.815 102.067,92.369C102.067,102.924 113.643,111.492 127.902,111.492L671.363,111.492C685.621,111.492 697.197,102.924 697.197,92.369Z" style="fill:rgb(208,208,208);"/>
                </g>
                <g transform="matrix(0.305075,0,0,0.550831,200.449,349.12)">
                    <path d="M697.197,92.369C697.197,81.815 686.957,73.246 674.343,73.246L124.921,73.246C112.308,73.246 102.067,81.815 102.067,92.369C102.067,102.924 112.308,111.492 124.921,111.492L674.343,111.492C686.957,111.492 697.197,102.924 697.197,92.369Z" style="fill:rgb(208,208,208);"/>
                </g>
                <g transform="matrix(0.219412,0,0,0.550831,52.1997,349.12)">
                    <path d="M697.197,92.369C697.197,81.815 682.959,73.246 665.421,73.246L133.844,73.246C116.306,73.246 102.067,81.815 102.067,92.369C102.067,102.924 116.306,111.492 133.844,111.492L665.421,111.492C682.959,111.492 697.197,102.924 697.197,92.369Z" style="fill:rgb(208,208,208);"/>
                </g>
                <g transform="matrix(0.203222,0,0,0.550831,735.276,349.12)">
                    <path d="M697.197,92.369C697.197,81.815 681.824,73.246 662.889,73.246L136.375,73.246C117.44,73.246 102.067,81.815 102.067,92.369C102.067,102.924 117.44,111.492 136.375,111.492L662.889,111.492C681.824,111.492 697.197,102.924 697.197,92.369Z" style="fill:rgb(208,208,208);"/>
                </g>
                <g transform="matrix(0.177225,0,0,0.550831,882.596,349.12)">
                    <path d="M697.197,92.369C697.197,81.815 679.569,73.246 657.857,73.246L141.408,73.246C119.695,73.246 102.067,81.815 102.067,92.369C102.067,102.924 119.695,111.492 141.408,111.492L657.857,111.492C679.569,111.492 697.197,102.924 697.197,92.369Z" style="fill:rgb(208,208,208);fill-opacity:0.54902;"/>
                </g>
                <g transform="matrix(0.304306,0,0,0.550831,992.348,349.12)">
                    <path d="M697.197,92.369C697.197,81.815 686.931,73.246 674.286,73.246L124.979,73.246C112.334,73.246 102.067,81.815 102.067,92.369C102.067,102.924 112.334,111.492 124.979,111.492L674.286,111.492C686.931,111.492 697.197,102.924 697.197,92.369Z" style="fill:rgb(208,208,208);"/>
                </g>
            </g>
            <g transform="matrix(0.653215,0,0,0.647905,221.711,134.459)">
                <g transform="matrix(0.205893,0,0,0.850173,58.7929,423.225)">
                    <path d="M697.197,92.369C697.197,81.815 673.968,73.246 645.357,73.246L153.907,73.246C125.296,73.246 102.067,81.815 102.067,92.369C102.067,102.924 125.296,111.492 153.907,111.492L645.357,111.492C673.968,111.492 697.197,102.924 697.197,92.369Z" style="fill:rgb(208,208,208);"/>
                </g>
                <g transform="matrix(0.240828,0,0,0.850173,-121.561,423.225)">
                    <path d="M697.197,92.369C697.197,81.815 677.338,73.246 652.877,73.246L146.388,73.246C121.927,73.246 102.067,81.815 102.067,92.369C102.067,102.924 121.927,111.492 146.388,111.492L652.877,111.492C677.338,111.492 697.197,102.924 697.197,92.369Z" style="fill:rgb(208,208,208);"/>
                </g>
                <g transform="matrix(0.167948,0,0,0.850173,-242.362,423.225)">
                    <path d="M697.197,92.369C697.197,81.815 668.72,73.246 633.644,73.246L165.62,73.246C130.544,73.246 102.067,81.815 102.067,92.369C102.067,102.924 130.544,111.492 165.62,111.492L633.644,111.492C668.72,111.492 697.197,102.924 697.197,92.369Z" style="fill:rgb(208,208,208);fill-opacity:0.498039;"/>
                </g>
                <g transform="matrix(0.964734,0,0,0.850173,124.998,423.225)">
                    <path d="M697.197,92.369C697.197,81.815 692.24,73.246 686.133,73.246L113.131,73.246C107.025,73.246 102.067,81.815 102.067,92.369C102.067,102.924 107.025,111.492 113.131,111.492L686.133,111.492C692.24,111.492 697.197,102.924 697.197,92.369Z" style="fill:rgb(208,208,208);"/>
                </g>
                <g transform="matrix(0.544307,0,0,0.850173,782.284,422.895)">
                    <path d="M697.197,92.369C697.197,81.815 688.41,73.246 677.588,73.246L121.677,73.246C110.854,73.246 102.067,81.815 102.067,92.369C102.067,102.924 110.854,111.492 121.677,111.492L677.588,111.492C688.41,111.492 697.197,102.924 697.197,92.369Z" style="fill:rgb(208,208,208);"/>
                </g>
                <g transform="matrix(0.46992,0,0,0.850173,1155.42,422.895)">
                    <path d="M697.197,92.369C697.197,81.815 687.019,73.246 674.484,73.246L124.781,73.246C112.245,73.246 102.067,81.815 102.067,92.369C102.067,102.924 112.245,111.492 124.781,111.492L674.484,111.492C687.019,111.492 697.197,102.924 697.197,92.369Z" style="fill:rgb(208,208,208);"/>
                </g>
            </g>
            <g transform="matrix(-0.653215,-1.09096e-16,5.81808e-17,-0.647905,1040.51,994.433)">
                <g transform="matrix(0.205893,0,0,0.850173,58.7929,423.225)">
                    <path d="M697.197,92.369C697.197,81.815 673.968,73.246 645.357,73.246L153.907,73.246C125.296,73.246 102.067,81.815 102.067,92.369C102.067,102.924 125.296,111.492 153.907,111.492L645.357,111.492C673.968,111.492 697.197,102.924 697.197,92.369Z" style="fill:rgb(208,208,208);"/>
                </g>
                <g transform="matrix(0.240828,0,0,0.850173,-121.561,423.225)">
                    <path d="M697.197,92.369C697.197,81.815 677.338,73.246 652.877,73.246L146.388,73.246C121.927,73.246 102.067,81.815 102.067,92.369C102.067,102.924 121.927,111.492 146.388,111.492L652.877,111.492C677.338,111.492 697.197,102.924 697.197,92.369Z" style="fill:rgb(208,208,208);"/>
                </g>
                <g transform="matrix(0.2267,1.27797e-32,-1.35573e-32,0.850173,-283.324,423.225)">
                    <path d="M697.197,92.369C697.197,81.815 676.1,73.246 650.115,73.246L149.149,73.246C123.164,73.246 102.067,81.815 102.067,92.369C102.067,102.924 123.164,111.492 149.149,111.492L650.115,111.492C676.1,111.492 697.197,102.924 697.197,92.369Z" style="fill:rgb(208,208,208);"/>
                </g>
                <g transform="matrix(0.964734,0,0,0.850173,124.998,423.225)">
                    <path d="M697.197,92.369C697.197,81.815 692.24,73.246 686.133,73.246L113.131,73.246C107.025,73.246 102.067,81.815 102.067,92.369C102.067,102.924 107.025,111.492 113.131,111.492L686.133,111.492C692.24,111.492 697.197,102.924 697.197,92.369Z" style="fill:rgb(208,208,208);"/>
                </g>
                <g transform="matrix(0.544307,0,0,0.850173,782.284,422.895)">
                    <path d="M697.197,92.369C697.197,81.815 688.41,73.246 677.588,73.246L121.677,73.246C110.854,73.246 102.067,81.815 102.067,92.369C102.067,102.924 110.854,111.492 121.677,111.492L677.588,111.492C688.41,111.492 697.197,102.924 697.197,92.369Z" style="fill:rgb(208,208,208);"/>
                </g>
                <g transform="matrix(0.462638,0,0,0.850173,1156.16,422.895)">
                    <path d="M697.197,92.369C697.197,81.815 686.859,73.246 674.126,73.246L125.138,73.246C112.405,73.246 102.067,81.815 102.067,92.369C102.067,102.924 112.405,111.492 125.138,111.492L674.126,111.492C686.859,111.492 697.197,102.924 697.197,92.369Z" style="fill:rgb(208,208,208);"/>
                </g>
            </g>
            <g transform="matrix(-0.653215,-1.09096e-16,5.81808e-17,-0.647905,1040.51,1064.58)">
                <g transform="matrix(0.511414,1.5227e-32,4.19168e-32,0.850173,27.6091,423.225)">
                    <path d="M697.197,92.369C697.197,81.815 687.845,73.246 676.326,73.246L122.938,73.246C111.419,73.246 102.067,81.815 102.067,92.369C102.067,102.924 111.419,111.492 122.938,111.492L676.326,111.492C687.845,111.492 697.197,102.924 697.197,92.369Z" style="fill:rgb(208,208,208);"/>
                </g>
                <g transform="matrix(0.458685,-5.93686e-33,0,0.850173,-273.45,423.225)">
                    <path d="M697.197,92.369C697.197,81.815 686.77,73.246 673.927,73.246L125.337,73.246C112.494,73.246 102.067,81.815 102.067,92.369C102.067,102.924 112.494,111.492 125.337,111.492L673.927,111.492C686.77,111.492 697.197,102.924 697.197,92.369Z" style="fill:rgb(208,208,208);fill-opacity:0.498039;"/>
                </g>
                <g transform="matrix(0.614548,2.37825e-32,0,0.850173,369.146,423.225)">
                    <path d="M697.197,92.369C697.197,81.815 689.415,73.246 679.829,73.246L119.435,73.246C109.85,73.246 102.067,81.815 102.067,92.369C102.067,102.924 109.85,111.492 119.435,111.492L679.829,111.492C689.415,111.492 697.197,102.924 697.197,92.369Z" style="fill:rgb(208,208,208);"/>
                </g>
                <g transform="matrix(0.407446,6.06676e-32,5.2396e-33,0.850173,1002.86,422.895)">
                    <path d="M697.197,92.369C697.197,81.815 685.459,73.246 671.001,73.246L128.264,73.246C113.806,73.246 102.067,81.815 102.067,92.369C102.067,102.924 113.806,111.492 128.264,111.492L671.001,111.492C685.459,111.492 697.197,102.924 697.197,92.369Z" style="fill:rgb(208,208,208);fill-opacity:0.498039;"/>
                </g>
                <g transform="matrix(0.263472,9.81138e-32,3.38814e-33,0.850173,814.542,422.895)">
                    <path d="M697.197,92.369C697.197,81.815 679.045,73.246 656.686,73.246L142.578,73.246C120.22,73.246 102.067,81.815 102.067,92.369C102.067,102.924 120.22,111.492 142.578,111.492L656.686,111.492C679.045,111.492 697.197,102.924 697.197,92.369Z" style="fill:rgb(208,208,208);"/>
                </g>
                <g transform="matrix(0.241474,1.14049e-32,1.04792e-32,0.850173,1310.36,422.895)">
                    <path d="M697.197,92.369C697.197,81.815 677.391,73.246 652.996,73.246L146.269,73.246C121.873,73.246 102.067,81.815 102.067,92.369C102.067,102.924 121.873,111.492 146.269,111.492L652.996,111.492C677.391,111.492 697.197,102.924 697.197,92.369Z" style="fill:rgb(208,208,208);"/>
                </g>
            </g>
            <g transform="matrix(0.653215,0,0,0.647905,219.18,132.852)">
                <g transform="matrix(0.532652,0,0,0.850173,-53.6615,533.641)">
                    <path d="M697.197,92.369C697.197,81.815 688.218,73.246 677.159,73.246L122.106,73.246C111.046,73.246 102.067,81.815 102.067,92.369C102.067,102.924 111.046,111.492 122.106,111.492L677.159,111.492C688.218,111.492 697.197,102.924 697.197,92.369Z" style="fill:rgb(208,208,208);"/>
                </g>
                <g transform="matrix(0.298055,0,0,0.850173,-251.766,533.641)">
                    <path d="M697.197,92.369C697.197,81.815 681.151,73.246 661.386,73.246L137.878,73.246C118.114,73.246 102.067,81.815 102.067,92.369C102.067,102.924 118.114,111.492 137.878,111.492L661.386,111.492C681.151,111.492 697.197,102.924 697.197,92.369Z" style="fill:rgb(208,208,208);"/>
                </g>
                <g transform="matrix(0.399735,0,0,0.850173,310.064,533.641)">
                    <path d="M697.197,92.369C697.197,81.815 685.232,73.246 670.495,73.246L128.769,73.246C114.032,73.246 102.067,81.815 102.067,92.369C102.067,102.924 114.032,111.492 128.769,111.492L670.495,111.492C685.232,111.492 697.197,102.924 697.197,92.369Z" style="fill:rgb(208,208,208);fill-opacity:0.54902;"/>
                </g>
                <g transform="matrix(0.724858,0,0,0.850173,543.683,533.641)">
                    <path d="M697.197,92.369C697.197,81.815 690.599,73.246 682.472,73.246L116.792,73.246C108.665,73.246 102.067,81.815 102.067,92.369C102.067,102.924 108.665,111.492 116.792,111.492L682.472,111.492C690.599,111.492 697.197,102.924 697.197,92.369Z" style="fill:rgb(208,208,208);"/>
                </g>
                <g transform="matrix(0.20623,0,0,0.850173,1057.12,533.641)">
                    <path d="M697.197,92.369C697.197,81.815 674.006,73.246 645.442,73.246L153.823,73.246C125.258,73.246 102.067,81.815 102.067,92.369C102.067,102.924 125.258,111.492 153.823,111.492L645.442,111.492C674.006,111.492 697.197,102.924 697.197,92.369Z" style="fill:rgb(208,208,208);"/>
                </g>
                <g transform="matrix(0.153573,0,0,0.850173,1213.85,533.641)">
                    <path d="M697.197,92.369C697.197,81.815 666.055,73.246 627.696,73.246L171.569,73.246C133.21,73.246 102.067,81.815 102.067,92.369C102.067,102.924 133.21,111.492 171.569,111.492L627.696,111.492C666.055,111.492 697.197,102.924 697.197,92.369Z" style="fill:rgb(208,208,208);"/>
                </g>
                <g transform="matrix(0.276236,0,0,0.850173,1315.84,533.641)">
                    <path d="M697.197,92.369C697.197,81.815 679.883,73.246 658.558,73.246L140.706,73.246C119.381,73.246 102.067,81.815 102.067,92.369C102.067,102.924 119.381,111.492 140.706,111.492L658.558,111.492C679.883,111.492 697.197,102.924 697.197,92.369Z" style="fill:rgb(208,208,208);fill-opacity:0.545098;"/>
                </g>
            </g>
            <g transform="matrix(0.653215,0,0,0.647905,219.18,-286.954)">
                <g transform="matrix(0.532652,0,0,0.850173,-53.6615,533.641)">
                    <path d="M697.197,92.369C697.197,81.815 688.218,73.246 677.159,73.246L122.106,73.246C111.046,73.246 102.067,81.815 102.067,92.369C102.067,102.924 111.046,111.492 122.106,111.492L677.159,111.492C688.218,111.492 697.197,102.924 697.197,92.369Z" style="fill:rgb(208,208,208);"/>
                </g>
                <g transform="matrix(0.298055,0,0,0.850173,-251.766,533.641)">
                    <path d="M697.197,92.369C697.197,81.815 681.151,73.246 661.386,73.246L137.878,73.246C118.114,73.246 102.067,81.815 102.067,92.369C102.067,102.924 118.114,111.492 137.878,111.492L661.386,111.492C681.151,111.492 697.197,102.924 697.197,92.369Z" style="fill:rgb(208,208,208);fill-opacity:0.498039;"/>
                </g>
                <g transform="matrix(0.399735,0,0,0.850173,310.064,533.641)">
                    <path d="M697.197,92.369C697.197,81.815 685.232,73.246 670.495,73.246L128.769,73.246C114.032,73.246 102.067,81.815 102.067,92.369C102.067,102.924 114.032,111.492 128.769,111.492L670.495,111.492C685.232,111.492 697.197,102.924 697.197,92.369Z" style="fill:rgb(208,208,208);"/>
                </g>
                <g transform="matrix(0.724858,0,0,0.850173,543.683,533.641)">
                    <path d="M697.197,92.369C697.197,81.815 690.599,73.246 682.472,73.246L116.792,73.246C108.665,73.246 102.067,81.815 102.067,92.369C102.067,102.924 108.665,111.492 116.792,111.492L682.472,111.492C690.599,111.492 697.197,102.924 697.197,92.369Z" style="fill:rgb(208,208,208);"/>
                </g>
                <g transform="matrix(0.20623,0,0,0.850173,1057.12,533.641)">
                    <path d="M697.197,92.369C697.197,81.815 674.006,73.246 645.442,73.246L153.823,73.246C125.258,73.246 102.067,81.815 102.067,92.369C102.067,102.924 125.258,111.492 153.823,111.492L645.442,111.492C674.006,111.492 697.197,102.924 697.197,92.369Z" style="fill:rgb(208,208,208);fill-opacity:0.498039;"/>
                </g>
                <g transform="matrix(0.153573,0,0,0.850173,1213.85,533.641)">
                    <path d="M697.197,92.369C697.197,81.815 666.055,73.246 627.696,73.246L171.569,73.246C133.21,73.246 102.067,81.815 102.067,92.369C102.067,102.924 133.21,111.492 171.569,111.492L627.696,111.492C666.055,111.492 697.197,102.924 697.197,92.369Z" style="fill:rgb(208,208,208);"/>
                </g>
                <g transform="matrix(0.240098,0,0,0.850173,1319.53,533.641)">
                    <path d="M697.197,92.369C697.197,81.815 677.277,73.246 652.742,73.246L146.522,73.246C121.987,73.246 102.067,81.815 102.067,92.369C102.067,102.924 121.987,111.492 146.522,111.492L652.742,111.492C677.277,111.492 697.197,102.924 697.197,92.369Z" style="fill:rgb(208,208,208);"/>
                </g>
            </g>
            <g transform="matrix(0.653215,0,0,0.647905,219.18,-356.886)">
                <g transform="matrix(0.493889,0,0,0.850173,-271.754,533.641)">
                    <path d="M697.197,92.369C697.197,81.815 687.513,73.246 675.586,73.246L123.679,73.246C111.751,73.246 102.067,81.815 102.067,92.369C102.067,102.924 111.751,111.492 123.679,111.492L675.586,111.492C687.513,111.492 697.197,102.924 697.197,92.369Z" style="fill:rgb(208,208,208);"/>
                </g>
                <g transform="matrix(0.459758,0,0,0.850173,74.4356,533.641)">
                    <path d="M697.197,92.369C697.197,81.815 686.794,73.246 673.981,73.246L125.283,73.246C112.47,73.246 102.067,81.815 102.067,92.369C102.067,102.924 112.47,111.492 125.283,111.492L673.981,111.492C686.794,111.492 697.197,102.924 697.197,92.369Z" style="fill:rgb(208,208,208);"/>
                </g>
                <g transform="matrix(0.257391,0,0,0.850173,402.73,533.641)">
                    <path d="M697.197,92.369C697.197,81.815 678.616,73.246 655.729,73.246L143.536,73.246C120.649,73.246 102.067,81.815 102.067,92.369C102.067,102.924 120.649,111.492 143.536,111.492L655.729,111.492C678.616,111.492 697.197,102.924 697.197,92.369Z" style="fill:rgb(208,208,208);fill-opacity:0.498039;"/>
                </g>
                <g transform="matrix(0.462332,0,0,0.850173,570.478,533.641)">
                    <path d="M697.197,92.369C697.197,81.815 686.852,73.246 674.111,73.246L125.154,73.246C112.412,73.246 102.067,81.815 102.067,92.369C102.067,102.924 112.412,111.492 125.154,111.492L674.111,111.492C686.852,111.492 697.197,102.924 697.197,92.369Z" style="fill:rgb(208,208,208);"/>
                </g>
                <g transform="matrix(0.502895,0,0,0.850173,885.014,533.641)">
                    <path d="M697.197,92.369C697.197,81.815 687.687,73.246 675.973,73.246L123.292,73.246C111.578,73.246 102.067,81.815 102.067,92.369C102.067,102.924 111.578,111.492 123.292,111.492L675.973,111.492C687.687,111.492 697.197,102.924 697.197,92.369Z" style="fill:rgb(208,208,208);"/>
                </g>
                <g transform="matrix(0.342006,0,0,0.850173,1248.48,533.641)">
                    <path d="M697.197,92.369C697.197,81.815 683.213,73.246 665.988,73.246L133.276,73.246C116.051,73.246 102.067,81.815 102.067,92.369C102.067,102.924 116.051,111.492 133.276,111.492L665.988,111.492C683.213,111.492 697.197,102.924 697.197,92.369Z" style="fill:rgb(208,208,208);"/>
                </g>
            </g>
            <g transform="matrix(0.653335,0,0,0.647905,216.337,143.719)">
                <g transform="matrix(0.399735,0,0,0.850173,39.008,624.803)">
                    <path d="M697.197,92.369C697.197,81.815 685.235,73.246 670.5,73.246L128.764,73.246C114.03,73.246 102.067,81.815 102.067,92.369C102.067,102.924 114.03,111.492 128.764,111.492L670.5,111.492C685.235,111.492 697.197,102.924 697.197,92.369Z" style="fill:rgb(208,208,208);fill-opacity:0.498039;"/>
                </g>
                <g transform="matrix(0.448163,0,0,0.850173,-262.695,624.803)">
                    <path d="M697.197,92.369C697.197,81.815 686.527,73.246 673.385,73.246L125.879,73.246C112.737,73.246 102.067,81.815 102.067,92.369C102.067,102.924 112.737,111.492 125.879,111.492L673.385,111.492C686.527,111.492 697.197,102.924 697.197,92.369Z" style="fill:rgb(208,208,208);"/>
                </g>
                <g transform="matrix(0.255758,0,0,0.850173,343.924,624.803)">
                    <path d="M697.197,92.369C697.197,81.815 678.501,73.246 655.472,73.246L143.793,73.246C120.764,73.246 102.067,81.815 102.067,92.369C102.067,102.924 120.764,111.492 143.793,111.492L655.472,111.492C678.501,111.492 697.197,102.924 697.197,92.369Z" style="fill:rgb(208,208,208);"/>
                </g>
                <g transform="matrix(0.255758,0,0,0.850173,538.042,624.803)">
                    <path d="M697.197,92.369C697.197,81.815 678.501,73.246 655.472,73.246L143.793,73.246C120.764,73.246 102.067,81.815 102.067,92.369C102.067,102.924 120.764,111.492 143.793,111.492L655.472,111.492C678.501,111.492 697.197,102.924 697.197,92.369Z" style="fill:rgb(208,208,208);"/>
                </g>
                <g transform="matrix(0.636463,0,0,0.850173,680.572,624.803)">
                    <path d="M697.197,92.369C697.197,81.815 689.684,73.246 680.43,73.246L118.834,73.246C109.58,73.246 102.067,81.815 102.067,92.369C102.067,102.924 109.58,111.492 118.834,111.492L680.43,111.492C689.684,111.492 697.197,102.924 697.197,92.369Z" style="fill:rgb(208,208,208);fill-opacity:0.498039;"/>
                </g>
                <g transform="matrix(0.525801,0,0,0.850173,1124.41,624.803)">
                    <path d="M697.197,92.369C697.197,81.815 688.103,73.246 676.901,73.246L122.363,73.246C111.162,73.246 102.067,81.815 102.067,92.369C102.067,102.924 111.162,111.492 122.363,111.492L676.901,111.492C688.103,111.492 697.197,102.924 697.197,92.369Z" style="fill:rgb(208,208,208);"/>
                </g>
            </g>
        </g>
        <g id="Magnifying-Glass" serif:id="Magnifying Glass" transform="matrix(0.764353,0,0,1.17742,47.8107,-31.2552)">
            <path d="M879.379,460.16C852.461,474.695 821.661,482.948 788.948,482.948C683.675,482.948 598.207,397.48 598.207,292.207C598.207,186.934 683.675,101.465 788.948,101.465C894.221,101.465 979.69,186.934 979.69,292.207C979.69,317.23 975.231,339.666 966.608,360.957C966.277,361.878 965.907,362.895 965.494,364.017L960.307,375.653C953.464,387.505 938.286,391.572 926.434,384.729C914.582,377.887 910.515,362.709 917.358,350.857C917.358,350.857 920.105,346.598 922.652,340.506C923.105,339.422 923.575,338.406 923.918,337.397C924.009,337.127 924.103,336.862 924.2,336.602C928.79,322.63 931.273,307.706 931.273,292.207C931.273,213.656 867.499,149.882 788.948,149.882C710.397,149.882 646.624,213.656 646.624,292.207C646.624,370.758 710.397,434.531 788.948,434.531C826.06,434.531 859.872,420.297 885.22,396.994L902.902,414.676C903.227,414.967 903.545,415.269 903.857,415.581L1077.68,589.402C1087.21,598.931 1087.21,614.403 1077.68,623.931C1068.15,633.46 1052.68,633.46 1043.15,623.931L879.379,460.16Z" style="fill:rgb(53,87,148);"/>
        </g>
    </g>
    <defs>
        <linearGradient id="_Linear1" x1="0" y1="0" x2="1" y2="0" gradientUnits="userSpaceOnUse" gradientTransform="matrix(595.13,0,0,38.2462,102.067,92.3692)"><stop offset="0" style="stop-color:rgb(0,173,200);stop-opacity:1"/><stop offset="1" style="stop-color:rgb(52,230,129);stop-opacity:1"/></linearGradient>
        <linearGradient id="_Linear2" x1="0" y1="0" x2="1" y2="0" gradientUnits="userSpaceOnUse" gradientTransform="matrix(595.13,0,0,38.2462,102.067,92.3692)"><stop offset="0" style="stop-color:rgb(0,173,200);stop-opacity:1"/><stop offset="1" style="stop-color:rgb(52,230,129);stop-opacity:1"/></linearGradient>
        <linearGradient id="_Linear3" x1="0" y1="0" x2="1" y2="0" gradientUnits="userSpaceOnUse" gradientTransform="matrix(595.13,0,0,38.2462,102.067,92.3692)"><stop offset="0" style="stop-color:rgb(0,173,200);stop-opacity:1"/><stop offset="1" style="stop-color:rgb(52,230,129);stop-opacity:1"/></linearGradient>
        <linearGradient id="_Linear4" x1="0" y1="0" x2="1" y2="0" gradientUnits="userSpaceOnUse" gradientTransform="matrix(595.13,0,0,38.2462,102.067,92.3692)"><stop offset="0" style="stop-color:rgb(0,173,200);stop-opacity:1"/><stop offset="1" style="stop-color:rgb(52,230,129);stop-opacity:1"/></linearGradient>
    </defs>
</svg>
